HIERARCHY
ROOT Hips
{
	OFFSET 0.000000 0.000000 0.000000
	CHANNELS 6 Xposition Yposition Zposition Xrotation Yrotation Zrotation
	JOINT LeftUpLeg_virtual
	{
		OFFSET 0.000000 0.000000 0.000000
		CHANNELS 3 Xrotation Yrotation Zrotation
		JOINT LeftUpLeg
		{
			OFFSET 10.205400 -3.823500 0.155100
			CHANNELS 3 Xrotation Yrotation Zrotation
			JOINT LeftLeg
			{
				OFFSET 0.708757 -12.982077 0.567790
				CHANNELS 3 Xrotation Yrotation Zrotation
				JOINT LeftFoot
				{
					OFFSET -0.708756 -10.717838 -2.184338
					CHANNELS 3 Xrotation Yrotation Zrotation
					JOINT LeftToeBase
					{
						OFFSET 0.108149 -7.191104 7.560241
						CHANNELS 3 Xrotation Yrotation Zrotation
						JOINT LeftToe_End
						{
							OFFSET 0.070230 0.081724 4.490308
							CHANNELS 3 Xrotation Yrotation Zrotation
							End Site
							{
								OFFSET 0 0 0
							}
						}
					}
				}
			}
		}
	}
	JOINT RightUpLeg_virtual
	{
		OFFSET 0.000000 0.000000 0.000000
		CHANNELS 3 Xrotation Yrotation Zrotation
		JOINT RightUpLeg
		{
			OFFSET -10.205400 -3.823500 0.005500
			CHANNELS 3 Xrotation Yrotation Zrotation
			JOINT RightLeg
			{
				OFFSET -0.708756 -12.982134 0.610632
				CHANNELS 3 Xrotation Yrotation Zrotation
				JOINT RightFoot
				{
					OFFSET 0.708754 -10.717769 -1.945823
					CHANNELS 3 Xrotation Yrotation Zrotation
					JOINT RightToeBase
					{
						OFFSET -0.108140 -7.191069 7.372968
						CHANNELS 3 Xrotation Yrotation Zrotation
						JOINT RightToe_End
						{
							OFFSET -0.070227 0.081735 4.479403
							CHANNELS 3 Xrotation Yrotation Zrotation
							End Site
							{
								OFFSET 0 0 0
							}
						}
					}
				}
			}
		}
	}
	JOINT Spine_virtual
	{
		OFFSET 0.000000 0.000000 0.000000
		CHANNELS 3 Xrotation Yrotation Zrotation
		JOINT Spine
		{
			OFFSET 0.000000 6.876099 0.125700
			CHANNELS 3 Xrotation Yrotation Zrotation
			JOINT Spine1
			{
				OFFSET 0.000000 5.730043 0.104720
				CHANNELS 3 Xrotation Yrotation Zrotation
				JOINT Spine1_split
				{
					OFFSET 0.000000 5.730043 0.104720
					CHANNELS 3 Xrotation Yrotation Zrotation
					JOINT Spine2
					{
						OFFSET 0.000000 5.730043 0.104720
						CHANNELS 3 Xrotation Yrotation Zrotation
						JOINT Neck_virtual
						{
							OFFSET 0.000000 0.000000 0.000000
							CHANNELS 3 Xrotation Yrotation Zrotation
							JOINT Neck
							{
								OFFSET 0.000000 10.314075 0.188496
								CHANNELS 3 Xrotation Yrotation Zrotation
								JOINT Head
								{
									OFFSET 0.000000 7.643700 -2.377400
									CHANNELS 3 Xrotation Yrotation Zrotation
									JOINT HeadTop_End
									{
										OFFSET 0.000000 43.788605 -13.619600
										CHANNELS 3 Xrotation Yrotation Zrotation
										End Site
										{
											OFFSET 0 0 0
										}
									}
								}
							}
						}
						JOINT LeftShoulder_virtual
						{
							OFFSET 0.000000 0.000000 0.000000
							CHANNELS 3 Xrotation Yrotation Zrotation
							JOINT LeftShoulder
							{
								OFFSET 2.196100 4.412489 0.087492
								CHANNELS 3 Xrotation Yrotation Zrotation
								JOINT LeftShoulder_split
								{
									OFFSET 2.196100 4.412489 0.087492
									CHANNELS 3 Xrotation Yrotation Zrotation
									JOINT LeftArm
									{
										OFFSET 8.771219 -2.981674 -0.026999
										CHANNELS 3 Xrotation Yrotation Zrotation
										JOINT LeftForeArm
										{
											OFFSET 8.512804 0.000000 -0.000000
											CHANNELS 3 Xrotation Yrotation Zrotation
											JOINT LeftHand
											{
												OFFSET 18.484802 0.000000 -0.000000
												CHANNELS 3 Xrotation Yrotation Zrotation
												End Site
												{
													OFFSET 0 0 0
												}
											}
										}
									}
								}
							}
						}
						JOINT RightShoulder_virtual
						{
							OFFSET 0.000000 0.000000 0.000000
							CHANNELS 3 Xrotation Yrotation Zrotation
							JOINT RightShoulder
							{
								OFFSET -2.196100 4.412496 0.070690
								CHANNELS 3 Xrotation Yrotation Zrotation
								JOINT RightShoulder_split
								{
									OFFSET -2.196100 4.412496 0.070690
									CHANNELS 3 Xrotation Yrotation Zrotation
									JOINT RightArm
									{
										OFFSET -8.771282 -2.981682 -0.094208
										CHANNELS 3 Xrotation Yrotation Zrotation
										JOINT RightForeArm
										{
											OFFSET -8.494598 0.000000 0.000000
											CHANNELS 3 Xrotation Yrotation Zrotation
											JOINT RightHand
											{
												OFFSET -18.483803 0.000000 0.000001
												CHANNELS 3 Xrotation Yrotation Zrotation
												End Site
												{
													OFFSET 0 0 0
												}
											}
										}
									}
								}
							}
						}
					}
				}
			}
		}
	}
}
MOTION
Frames: 7
Frame Time: 0.03333333
-0.130700 44.463112 7.376996 0.000000 0.000000 0.000000 -88.282777 -7.404682 -0.478525 -6.431755 20.960590 15.831535 7.758738 -1.517706 3.876019 7.133337 29.800358 -22.042641 -4.782870 0.116048 1.780604 0.000000 0.000000 0.000000 -90.184185 -4.867959 0.734855 -7.876472 -19.479923 -19.757133 15.413256 -0.680181 -5.478386 13.959851 -34.365947 30.004946 -11.721921 1.397684 -3.805178 0.000000 0.000000 0.000000 -87.412522 -7.471604 -2.038385 1.583171 -0.666901 -0.489602 -1.283989 0.177237 -0.202118 0.633218 0.776967 -0.308804 0.000000 0.000000 0.000000 -1.155105 0.373791 -0.274116 -5.949007 3.672750 -8.130839 6.042857 8.586022 -12.863597 0.000000 0.000000 0.000000 -0.326648 0.341749 -0.088054 0.447182 -5.734171 -0.672123 -0.053860 1.592173 -2.749843 44.066280 -41.987362 -32.657405 4.972569 -86.282474 4.501636 0.000000 0.000000 0.000000 -0.212556 0.591482 -0.592693 0.387767 0.217747 2.276338 7.588859 7.780783 -0.907082 -4.519890 1.757321 81.306285 -179.408770 54.886492 -179.907060 0.000000 0.000000 0.000000 
-0.124655 44.458794 7.373466 0.000000 0.000000 0.000000 -88.297626 -7.429784 -0.473248 -6.404382 20.914150 15.803109 7.757296 -1.550724 3.872843 7.154357 29.793073 -22.044661 -4.793004 0.113173 1.762386 0.000000 0.000000 0.000000 -90.181235 -4.873943 0.755952 -7.923803 -19.480239 -19.776080 15.457850 -0.705591 -5.508478 13.962238 -34.403379 30.005670 -11.657006 1.397455 -3.812145 0.000000 0.000000 0.000000 -87.427965 -7.483499 -2.035235 1.589216 -0.667288 -0.476958 -1.287378 0.180614 -0.202149 0.640735 0.772554 -0.299684 0.000000 0.000000 0.000000 -1.163242 0.382337 -0.279911 -5.925785 3.721331 -8.129873 6.613031 8.745273 -13.238531 0.000000 0.000000 0.000000 -0.315164 0.338771 -0.086615 0.437057 -5.756738 -0.723229 -0.054653 1.603598 -2.647097 44.024357 -41.994561 -32.739900 4.887560 -86.252052 4.424168 0.000000 0.000000 0.000000 -0.204864 0.596336 -0.594033 0.395405 0.226752 2.297564 7.583421 7.794218 -0.913804 -4.481000 1.737016 81.212145 -179.405478 54.824125 -179.898631 0.000000 0.000000 0.000000 
-0.118281 44.452888 7.367218 0.000000 0.000000 0.000000 -88.308820 -7.461570 -0.473781 -6.388825 20.862176 15.775112 7.762087 -1.586360 3.870044 7.171622 29.784488 -22.048667 -4.803029 0.109428 1.745624 0.000000 0.000000 0.000000 -90.176351 -4.891775 0.768020 -7.980976 -19.484718 -19.790388 15.492568 -0.730944 -5.537205 13.956663 -34.442486 30.000233 -11.594678 1.395763 -3.816198 0.000000 0.000000 0.000000 -87.437841 -7.501779 -2.031476 1.589308 -0.664176 -0.459618 -1.294130 0.188423 -0.202891 0.647250 0.785771 -0.279237 0.000000 0.000000 0.000000 -1.179325 0.392846 -0.284364 -5.897401 3.790771 -8.140571 7.367890 8.931201 -13.745906 0.000000 0.000000 0.000000 -0.306887 0.339272 -0.082178 0.422813 -5.763749 -0.784508 -0.049861 1.605614 -2.551481 44.003425 -42.009464 -32.770107 4.711729 -86.228611 4.254711 0.000000 0.000000 0.000000 -0.199594 0.602199 -0.598902 0.398714 0.192104 2.306953 7.601843 7.827785 -0.914521 -4.439425 1.717173 81.125866 -179.392910 54.748054 -179.906186 0.000000 0.000000 0.000000 
-0.112224 44.446419 7.358121 0.000000 0.000000 0.000000 -88.314892 -7.495861 -0.480389 -6.387587 20.808668 15.750691 7.771593 -1.623937 3.868003 7.185374 29.774605 -22.057853 -4.812962 0.105068 1.731388 0.000000 0.000000 0.000000 -90.168271 -4.917388 0.771206 -8.041656 -19.495062 -19.799057 15.507871 -0.754967 -5.561755 13.947196 -34.477108 29.992122 -11.539406 1.393089 -3.818867 0.000000 0.000000 0.000000 -87.440075 -7.525301 -2.029980 1.582773 -0.659516 -0.438639 -1.302680 0.197275 -0.203606 0.646233 0.807972 -0.258981 0.000000 0.000000 0.000000 -1.200783 0.403323 -0.286348 -5.882731 3.872191 -8.153157 8.199675 9.105887 -14.318076 0.000000 0.000000 0.000000 -0.303265 0.341936 -0.075261 0.407547 -5.753932 -0.849629 -0.040378 1.598884 -2.475905 44.010464 -42.032588 -32.755600 4.450254 -86.208216 3.997769 0.000000 0.000000 0.000000 -0.197500 0.607141 -0.605999 0.398115 0.118372 2.301721 7.637570 7.865175 -0.908726 -4.404648 1.700973 81.068533 -179.372761 54.680500 -179.928302 0.000000 0.000000 0.000000 
-0.107167 44.440907 7.348356 0.000000 0.000000 0.000000 -88.314817 -7.530202 -0.493829 -6.401314 20.758760 15.733412 7.785614 -1.659205 3.866822 7.199380 29.764281 -22.074379 -4.824593 0.100360 1.720390 0.000000 0.000000 0.000000 -90.157056 -4.946388 0.764721 -8.096075 -19.512753 -19.799569 15.495027 -0.778359 -5.579835 13.936705 -34.503288 29.982878 -11.493619 1.390307 -3.821950 0.000000 0.000000 0.000000 -87.433347 -7.552052 -2.033872 1.570652 -0.653600 -0.415925 -1.310940 0.204505 -0.203321 0.645672 0.843398 -0.239705 0.000000 0.000000 0.000000 -1.226728 0.411491 -0.284449 -5.900439 3.950012 -8.161267 9.001344 9.235585 -14.871139 0.000000 0.000000 0.000000 -0.305252 0.345455 -0.066622 0.394616 -5.729927 -0.909636 -0.029245 1.580535 -2.424960 44.045971 -42.064854 -32.710377 4.123724 -86.181046 3.674792 0.000000 0.000000 0.000000 -0.198745 0.610256 -0.613557 0.393620 0.014858 2.284335 7.679614 7.898036 -0.891393 -4.382955 1.699301 81.046376 -179.346738 54.639235 -179.961811 0.000000 0.000000 0.000000 
-0.103266 44.436985 7.339062 0.000000 0.000000 0.000000 -88.309169 -7.559133 -0.511131 -6.428443 20.719210 15.725706 7.802313 -1.687630 3.865610 7.216069 29.755463 -22.096683 -4.840239 0.095542 1.713108 0.000000 0.000000 0.000000 -90.142562 -4.973939 0.750466 -8.137090 -19.536163 -19.790857 15.455712 -0.801272 -5.589774 13.925099 -34.520521 29.971447 -11.456961 1.388481 -3.827031 0.000000 0.000000 0.000000 -87.418259 -7.579066 -2.043330 1.558702 -0.647329 -0.393370 -1.316985 0.209070 -0.201558 0.644836 0.890117 -0.226618 0.000000 0.000000 0.000000 -1.253831 0.417255 -0.279184 -5.953289 4.013415 -8.158967 9.667340 9.297647 -15.333073 0.000000 0.000000 0.000000 -0.313360 0.349278 -0.057019 0.386515 -5.693859 -0.961096 -0.010333 1.546804 -2.402426 44.105933 -42.103277 -32.648960 3.782259 -86.137100 3.335035 0.000000 0.000000 0.000000 -0.202570 0.612268 -0.619988 0.387415 -0.102656 2.258486 7.718137 7.918111 -0.860051 -4.377741 1.717018 81.056102 -179.317396 54.619104 179.998721 0.000000 0.000000 0.000000 
-0.101299 44.435028 7.332294 0.000000 0.000000 0.000000 -88.298172 -7.582884 -0.532442 -6.467481 20.697177 15.729349 7.822675 -1.703207 3.863929 7.233053 29.751116 -22.117647 -4.859711 0.090874 1.709545 0.000000 0.000000 0.000000 -90.125330 -4.997730 0.729993 -8.160713 -19.561450 -19.772153 15.398158 -0.824851 -5.591611 13.911175 -34.530691 29.955598 -11.426914 1.388520 -3.834559 0.000000 0.000000 0.000000 -87.397987 -7.604597 -2.056689 1.550495 -0.640585 -0.373436 -1.320692 0.210845 -0.197727 0.647849 0.937151 -0.221392 0.000000 0.000000 0.000000 -1.280522 0.421394 -0.271499 -6.034325 4.054495 -8.148386 10.129328 9.282306 -15.647781 0.000000 0.000000 0.000000 -0.326875 0.354281 -0.047405 0.383590 -5.649929 -0.999634 0.018592 1.512094 -2.405307 44.181584 -42.140259 -32.579476 3.487006 -86.076339 3.039904 0.000000 0.000000 0.000000 -0.207876 0.614217 -0.624925 0.380193 -0.219496 2.230858 7.752788 7.923646 -0.822833 -4.388972 1.755427 81.090991 -179.287726 54.614889 179.959160 0.000000 0.000000 0.000000 
